<svg xmlns="http://www.w3.org/2000/svg" version="1.1" viewBox="-50 -100 1200 1200">
    <path d="M660.224 526.6432l62.976 62.976V194.56a83.968 83.968 0 0 0-139.2128-62.976L413.9008 280.2688l44.5952 44.6464 201.728 201.7792zM125.0816 103.68a31.5392 31.5392 0 0 1 31.232 8.0384l1.536 1.536 755.6608 755.5072a31.5392 31.5392 0 0 1-44.544 44.544l-145.6128-145.7152v64.3584l-0.0512 3.3792-0.1024-67.7376-458.0864-458.0352-151.808-151.808a31.5392 31.5392 0 0 1 11.776-54.0672zM205.312 350.5664l514.7136 504.7808a83.968 83.968 0 0 1-130.9184 43.8272l-4.9664-4.096-196.7616-171.9296H303.4624a125.8496 125.8496 0 0 1-125.952-118.4768V429.2608c0.0512-29.3376 10.24-56.8832 27.8016-78.6944z" p-id="2215" fill="#2c2c2c"></path>
</svg>